<svg width="188" height="184" viewBox="0 0 188 184" fill="none" xmlns="http://www.w3.org/2000/svg">
<path d="M142.798 86.304C154.062 79.136 162.254 64.8 162.254 48.672C162.254 22.304 141.518 3.35999 115.15 3.35999H29.646V180H120.782C149.454 180 170.702 160.032 170.702 132.128C170.702 111.136 159.182 92.704 142.798 86.304ZM105.166 39.2C114.382 39.2 121.55 46.112 121.55 55.84C121.55 65.312 114.126 72.48 105.166 72.48H68.046V39.2H105.166ZM111.054 144.16H68.046V106.016H111.054C121.806 106.016 129.998 114.464 129.998 125.216C129.998 135.968 121.806 144.16 111.054 144.16Z" fill="#F2A93B"/>
</svg>
